<mxfile host="app.diagrams.net" agent="Mozilla/5.0 (Windows NT 10.0; Win64; x64) AppleWebKit/537.36 (KHTML, like Gecko) Chrome/129.0.0.0 Safari/537.36" version="24.7.17">
  <diagram name="Page-1" id="h3r7VRLWh2BUhgtbJdKC">
    <mxGraphModel dx="3583" dy="2091" grid="0" gridSize="10" guides="1" tooltips="1" connect="1" arrows="1" fold="1" page="0" pageScale="1" pageWidth="850" pageHeight="1100" math="0" shadow="0">
      <root>
        <mxCell id="0" />
        <mxCell id="1" parent="0" />
        <mxCell id="n1mP7_PYSrHe9957a9sX-211" value="" style="rounded=0;whiteSpace=wrap;html=1;" vertex="1" parent="1">
          <mxGeometry x="-314" y="-179" width="1909" height="1069" as="geometry" />
        </mxCell>
        <mxCell id="n1mP7_PYSrHe9957a9sX-207" value="" style="rounded=0;whiteSpace=wrap;html=1;" vertex="1" parent="1">
          <mxGeometry x="693" y="362" width="814" height="459" as="geometry" />
        </mxCell>
        <mxCell id="n1mP7_PYSrHe9957a9sX-140" value="" style="rounded=0;whiteSpace=wrap;html=1;" vertex="1" parent="1">
          <mxGeometry x="693" y="-86" width="809" height="368" as="geometry" />
        </mxCell>
        <mxCell id="n1mP7_PYSrHe9957a9sX-94" value="" style="rounded=0;whiteSpace=wrap;html=1;" vertex="1" parent="1">
          <mxGeometry x="-243" y="494" width="809" height="327" as="geometry" />
        </mxCell>
        <mxCell id="n1mP7_PYSrHe9957a9sX-47" value="" style="rounded=0;whiteSpace=wrap;html=1;" vertex="1" parent="1">
          <mxGeometry x="-243" y="108" width="810" height="318" as="geometry" />
        </mxCell>
        <mxCell id="n1mP7_PYSrHe9957a9sX-7" style="edgeStyle=none;curved=1;rounded=0;orthogonalLoop=1;jettySize=auto;html=1;exitX=1;exitY=0.5;exitDx=0;exitDy=0;entryX=0;entryY=0.5;entryDx=0;entryDy=0;fontSize=12;startSize=8;endSize=8;" edge="1" parent="1" source="n1mP7_PYSrHe9957a9sX-1" target="n1mP7_PYSrHe9957a9sX-5">
          <mxGeometry relative="1" as="geometry" />
        </mxCell>
        <mxCell id="n1mP7_PYSrHe9957a9sX-14" value="0" style="edgeLabel;html=1;align=center;verticalAlign=middle;resizable=0;points=[];fontSize=12;" vertex="1" connectable="0" parent="n1mP7_PYSrHe9957a9sX-7">
          <mxGeometry x="0.0222" relative="1" as="geometry">
            <mxPoint as="offset" />
          </mxGeometry>
        </mxCell>
        <mxCell id="n1mP7_PYSrHe9957a9sX-1" value="" style="ellipse;whiteSpace=wrap;html=1;" vertex="1" parent="1">
          <mxGeometry x="-159" y="232" width="80" height="80" as="geometry" />
        </mxCell>
        <mxCell id="n1mP7_PYSrHe9957a9sX-2" value="q0" style="text;strokeColor=none;fillColor=none;html=1;align=center;verticalAlign=middle;whiteSpace=wrap;rounded=0;fontSize=20;" vertex="1" parent="1">
          <mxGeometry x="-146.5" y="254" width="55" height="36" as="geometry" />
        </mxCell>
        <mxCell id="n1mP7_PYSrHe9957a9sX-5" value="" style="ellipse;whiteSpace=wrap;html=1;" vertex="1" parent="1">
          <mxGeometry x="-34" y="232" width="80" height="80" as="geometry" />
        </mxCell>
        <mxCell id="n1mP7_PYSrHe9957a9sX-6" value="q1" style="text;strokeColor=none;fillColor=none;html=1;align=center;verticalAlign=middle;whiteSpace=wrap;rounded=0;fontSize=20;" vertex="1" parent="1">
          <mxGeometry x="-21.5" y="254" width="55" height="36" as="geometry" />
        </mxCell>
        <mxCell id="n1mP7_PYSrHe9957a9sX-19" style="edgeStyle=none;curved=1;rounded=0;orthogonalLoop=1;jettySize=auto;html=1;exitX=0;exitY=0.5;exitDx=0;exitDy=0;entryX=1;entryY=0.5;entryDx=0;entryDy=0;fontSize=12;startSize=8;endSize=8;" edge="1" parent="1" source="n1mP7_PYSrHe9957a9sX-8" target="n1mP7_PYSrHe9957a9sX-5">
          <mxGeometry relative="1" as="geometry" />
        </mxCell>
        <mxCell id="n1mP7_PYSrHe9957a9sX-20" value="1" style="edgeLabel;html=1;align=center;verticalAlign=middle;resizable=0;points=[];fontSize=12;" vertex="1" connectable="0" parent="n1mP7_PYSrHe9957a9sX-19">
          <mxGeometry x="-0.1128" relative="1" as="geometry">
            <mxPoint as="offset" />
          </mxGeometry>
        </mxCell>
        <mxCell id="n1mP7_PYSrHe9957a9sX-26" style="edgeStyle=none;curved=1;rounded=0;orthogonalLoop=1;jettySize=auto;html=1;exitX=1;exitY=0.5;exitDx=0;exitDy=0;entryX=0;entryY=0.5;entryDx=0;entryDy=0;fontSize=12;startSize=8;endSize=8;" edge="1" parent="1" source="n1mP7_PYSrHe9957a9sX-8" target="n1mP7_PYSrHe9957a9sX-24">
          <mxGeometry relative="1" as="geometry" />
        </mxCell>
        <mxCell id="n1mP7_PYSrHe9957a9sX-27" value="0" style="edgeLabel;html=1;align=center;verticalAlign=middle;resizable=0;points=[];fontSize=12;" vertex="1" connectable="0" parent="n1mP7_PYSrHe9957a9sX-26">
          <mxGeometry x="-0.2487" relative="1" as="geometry">
            <mxPoint as="offset" />
          </mxGeometry>
        </mxCell>
        <mxCell id="n1mP7_PYSrHe9957a9sX-8" value="" style="ellipse;whiteSpace=wrap;html=1;" vertex="1" parent="1">
          <mxGeometry x="80" y="232" width="80" height="80" as="geometry" />
        </mxCell>
        <mxCell id="n1mP7_PYSrHe9957a9sX-9" value="q2" style="text;strokeColor=none;fillColor=none;html=1;align=center;verticalAlign=middle;whiteSpace=wrap;rounded=0;fontSize=20;" vertex="1" parent="1">
          <mxGeometry x="92.5" y="254" width="55" height="36" as="geometry" />
        </mxCell>
        <mxCell id="n1mP7_PYSrHe9957a9sX-12" value="" style="edgeStyle=elbowEdgeStyle;elbow=vertical;endArrow=classic;html=1;curved=0;rounded=0;endSize=8;startSize=8;fontSize=12;exitX=0.5;exitY=1;exitDx=0;exitDy=0;entryX=0.5;entryY=1;entryDx=0;entryDy=0;" edge="1" parent="1">
          <mxGeometry width="50" height="50" relative="1" as="geometry">
            <mxPoint x="-118" y="312" as="sourcePoint" />
            <mxPoint x="121" y="312" as="targetPoint" />
            <Array as="points">
              <mxPoint x="6" y="342" />
            </Array>
          </mxGeometry>
        </mxCell>
        <mxCell id="n1mP7_PYSrHe9957a9sX-15" value="1" style="edgeLabel;html=1;align=center;verticalAlign=middle;resizable=0;points=[];fontSize=12;" vertex="1" connectable="0" parent="n1mP7_PYSrHe9957a9sX-12">
          <mxGeometry x="0.2754" y="1" relative="1" as="geometry">
            <mxPoint x="-69" y="-1" as="offset" />
          </mxGeometry>
        </mxCell>
        <mxCell id="n1mP7_PYSrHe9957a9sX-21" value="" style="edgeStyle=elbowEdgeStyle;elbow=vertical;endArrow=classic;html=1;curved=0;rounded=0;endSize=8;startSize=8;fontSize=12;exitX=1;exitY=0;exitDx=0;exitDy=0;entryX=0;entryY=0;entryDx=0;entryDy=0;" edge="1" parent="1">
          <mxGeometry width="50" height="50" relative="1" as="geometry">
            <mxPoint x="35.06427124746179" y="242.7157287525381" as="sourcePoint" />
            <mxPoint x="-21.5042712474619" y="242.7157287525381" as="targetPoint" />
            <Array as="points">
              <mxPoint x="6" y="205" />
            </Array>
          </mxGeometry>
        </mxCell>
        <mxCell id="n1mP7_PYSrHe9957a9sX-23" value="0,1" style="edgeLabel;html=1;align=center;verticalAlign=middle;resizable=0;points=[];fontSize=12;" vertex="1" connectable="0" parent="n1mP7_PYSrHe9957a9sX-21">
          <mxGeometry x="0.0534" relative="1" as="geometry">
            <mxPoint x="4" as="offset" />
          </mxGeometry>
        </mxCell>
        <mxCell id="n1mP7_PYSrHe9957a9sX-24" value="" style="ellipse;whiteSpace=wrap;html=1;" vertex="1" parent="1">
          <mxGeometry x="196" y="232" width="80" height="80" as="geometry" />
        </mxCell>
        <mxCell id="n1mP7_PYSrHe9957a9sX-25" value="q3" style="text;strokeColor=none;fillColor=none;html=1;align=center;verticalAlign=middle;whiteSpace=wrap;rounded=0;fontSize=20;" vertex="1" parent="1">
          <mxGeometry x="208.5" y="254" width="55" height="36" as="geometry" />
        </mxCell>
        <mxCell id="n1mP7_PYSrHe9957a9sX-28" value="" style="edgeStyle=elbowEdgeStyle;elbow=vertical;endArrow=classic;html=1;curved=0;rounded=0;endSize=8;startSize=8;fontSize=12;exitX=1;exitY=0;exitDx=0;exitDy=0;entryX=0;entryY=0;entryDx=0;entryDy=0;" edge="1" parent="1">
          <mxGeometry width="50" height="50" relative="1" as="geometry">
            <mxPoint x="265.06427124746176" y="244.7157287525381" as="sourcePoint" />
            <mxPoint x="208.4957287525381" y="244.7157287525381" as="targetPoint" />
            <Array as="points">
              <mxPoint x="238" y="204" />
            </Array>
          </mxGeometry>
        </mxCell>
        <mxCell id="n1mP7_PYSrHe9957a9sX-29" value="0" style="edgeLabel;html=1;align=center;verticalAlign=middle;resizable=0;points=[];fontSize=12;" vertex="1" connectable="0" parent="n1mP7_PYSrHe9957a9sX-28">
          <mxGeometry x="0.0534" relative="1" as="geometry">
            <mxPoint x="4" as="offset" />
          </mxGeometry>
        </mxCell>
        <mxCell id="n1mP7_PYSrHe9957a9sX-32" style="edgeStyle=none;curved=1;rounded=0;orthogonalLoop=1;jettySize=auto;html=1;exitX=0;exitY=0.5;exitDx=0;exitDy=0;entryX=1;entryY=0.5;entryDx=0;entryDy=0;fontSize=12;startSize=8;endSize=8;" edge="1" parent="1" source="n1mP7_PYSrHe9957a9sX-30" target="n1mP7_PYSrHe9957a9sX-24">
          <mxGeometry relative="1" as="geometry" />
        </mxCell>
        <mxCell id="n1mP7_PYSrHe9957a9sX-33" value="0" style="edgeLabel;html=1;align=center;verticalAlign=middle;resizable=0;points=[];fontSize=12;" vertex="1" connectable="0" parent="n1mP7_PYSrHe9957a9sX-32">
          <mxGeometry x="-0.0752" y="-1" relative="1" as="geometry">
            <mxPoint as="offset" />
          </mxGeometry>
        </mxCell>
        <mxCell id="n1mP7_PYSrHe9957a9sX-30" value="" style="ellipse;whiteSpace=wrap;html=1;" vertex="1" parent="1">
          <mxGeometry x="325" y="232" width="80" height="80" as="geometry" />
        </mxCell>
        <mxCell id="n1mP7_PYSrHe9957a9sX-31" value="q4" style="text;strokeColor=none;fillColor=none;html=1;align=center;verticalAlign=middle;whiteSpace=wrap;rounded=0;fontSize=20;" vertex="1" parent="1">
          <mxGeometry x="337.5" y="254" width="55" height="36" as="geometry" />
        </mxCell>
        <mxCell id="n1mP7_PYSrHe9957a9sX-35" value="" style="edgeStyle=elbowEdgeStyle;elbow=vertical;endArrow=classic;html=1;curved=0;rounded=0;endSize=8;startSize=8;fontSize=12;exitX=1;exitY=0;exitDx=0;exitDy=0;entryX=0;entryY=0;entryDx=0;entryDy=0;" edge="1" parent="1">
          <mxGeometry width="50" height="50" relative="1" as="geometry">
            <mxPoint x="393.2842712474618" y="243.7157287525381" as="sourcePoint" />
            <mxPoint x="336.7157287525381" y="243.7157287525381" as="targetPoint" />
            <Array as="points">
              <mxPoint x="365" y="204" />
            </Array>
          </mxGeometry>
        </mxCell>
        <mxCell id="n1mP7_PYSrHe9957a9sX-36" value="1" style="edgeLabel;html=1;align=center;verticalAlign=middle;resizable=0;points=[];fontSize=12;" vertex="1" connectable="0" parent="n1mP7_PYSrHe9957a9sX-35">
          <mxGeometry x="0.0534" relative="1" as="geometry">
            <mxPoint x="4" as="offset" />
          </mxGeometry>
        </mxCell>
        <mxCell id="n1mP7_PYSrHe9957a9sX-39" style="edgeStyle=none;curved=1;rounded=0;orthogonalLoop=1;jettySize=auto;html=1;exitX=0;exitY=0.5;exitDx=0;exitDy=0;entryX=1;entryY=0.5;entryDx=0;entryDy=0;fontSize=12;startSize=8;endSize=8;" edge="1" parent="1" source="n1mP7_PYSrHe9957a9sX-37" target="n1mP7_PYSrHe9957a9sX-30">
          <mxGeometry relative="1" as="geometry" />
        </mxCell>
        <mxCell id="n1mP7_PYSrHe9957a9sX-40" value="1" style="edgeLabel;html=1;align=center;verticalAlign=middle;resizable=0;points=[];fontSize=12;" vertex="1" connectable="0" parent="n1mP7_PYSrHe9957a9sX-39">
          <mxGeometry x="-0.2113" relative="1" as="geometry">
            <mxPoint as="offset" />
          </mxGeometry>
        </mxCell>
        <mxCell id="n1mP7_PYSrHe9957a9sX-37" value="" style="ellipse;whiteSpace=wrap;html=1;" vertex="1" parent="1">
          <mxGeometry x="443" y="232" width="80" height="80" as="geometry" />
        </mxCell>
        <mxCell id="n1mP7_PYSrHe9957a9sX-48" value="" style="ellipse;whiteSpace=wrap;html=1;aspect=fixed;" vertex="1" parent="1">
          <mxGeometry x="449.5" y="238.5" width="67" height="67" as="geometry" />
        </mxCell>
        <mxCell id="n1mP7_PYSrHe9957a9sX-38" value="q5" style="text;strokeColor=none;fillColor=none;html=1;align=center;verticalAlign=middle;whiteSpace=wrap;rounded=0;fontSize=20;" vertex="1" parent="1">
          <mxGeometry x="455.5" y="254" width="55" height="36" as="geometry" />
        </mxCell>
        <mxCell id="n1mP7_PYSrHe9957a9sX-42" value="" style="edgeStyle=elbowEdgeStyle;elbow=vertical;endArrow=classic;html=1;curved=0;rounded=0;endSize=8;startSize=8;fontSize=12;exitX=0.5;exitY=1;exitDx=0;exitDy=0;entryX=0.5;entryY=1;entryDx=0;entryDy=0;" edge="1" parent="1">
          <mxGeometry width="50" height="50" relative="1" as="geometry">
            <mxPoint x="238" y="312" as="sourcePoint" />
            <mxPoint x="485" y="312" as="targetPoint" />
            <Array as="points">
              <mxPoint x="360" y="331" />
            </Array>
          </mxGeometry>
        </mxCell>
        <mxCell id="n1mP7_PYSrHe9957a9sX-43" value="1" style="edgeLabel;html=1;align=center;verticalAlign=middle;resizable=0;points=[];fontSize=12;" vertex="1" connectable="0" parent="n1mP7_PYSrHe9957a9sX-42">
          <mxGeometry x="-0.0423" y="1" relative="1" as="geometry">
            <mxPoint as="offset" />
          </mxGeometry>
        </mxCell>
        <mxCell id="n1mP7_PYSrHe9957a9sX-44" value="" style="edgeStyle=elbowEdgeStyle;elbow=vertical;endArrow=classic;html=1;curved=0;rounded=0;endSize=8;startSize=8;fontSize=12;exitX=1;exitY=1;exitDx=0;exitDy=0;entryX=0;entryY=1;entryDx=0;entryDy=0;" edge="1" parent="1" source="n1mP7_PYSrHe9957a9sX-37" target="n1mP7_PYSrHe9957a9sX-24">
          <mxGeometry width="50" height="50" relative="1" as="geometry">
            <mxPoint x="248" y="322" as="sourcePoint" />
            <mxPoint x="495" y="322" as="targetPoint" />
            <Array as="points">
              <mxPoint x="361" y="345" />
            </Array>
          </mxGeometry>
        </mxCell>
        <mxCell id="n1mP7_PYSrHe9957a9sX-45" value="0" style="edgeLabel;html=1;align=center;verticalAlign=middle;resizable=0;points=[];fontSize=12;" vertex="1" connectable="0" parent="n1mP7_PYSrHe9957a9sX-44">
          <mxGeometry x="-0.0423" y="1" relative="1" as="geometry">
            <mxPoint as="offset" />
          </mxGeometry>
        </mxCell>
        <mxCell id="n1mP7_PYSrHe9957a9sX-46" value="L1" style="text;strokeColor=none;fillColor=none;html=1;align=center;verticalAlign=middle;whiteSpace=wrap;rounded=0;fontSize=20;" vertex="1" parent="1">
          <mxGeometry x="-218" y="124" width="55" height="36" as="geometry" />
        </mxCell>
        <mxCell id="n1mP7_PYSrHe9957a9sX-51" value="" style="endArrow=classic;html=1;rounded=0;entryX=0;entryY=0.5;entryDx=0;entryDy=0;" edge="1" parent="1" target="n1mP7_PYSrHe9957a9sX-1">
          <mxGeometry width="50" height="50" relative="1" as="geometry">
            <mxPoint x="-224" y="272" as="sourcePoint" />
            <mxPoint x="151" y="273" as="targetPoint" />
          </mxGeometry>
        </mxCell>
        <mxCell id="n1mP7_PYSrHe9957a9sX-53" value="" style="ellipse;whiteSpace=wrap;html=1;" vertex="1" parent="1">
          <mxGeometry x="-81.5" y="615" width="80" height="80" as="geometry" />
        </mxCell>
        <mxCell id="n1mP7_PYSrHe9957a9sX-54" value="q0" style="text;strokeColor=none;fillColor=none;html=1;align=center;verticalAlign=middle;whiteSpace=wrap;rounded=0;fontSize=20;" vertex="1" parent="1">
          <mxGeometry x="-69" y="637" width="55" height="36" as="geometry" />
        </mxCell>
        <mxCell id="n1mP7_PYSrHe9957a9sX-63" style="edgeStyle=orthogonalEdgeStyle;rounded=0;orthogonalLoop=1;jettySize=auto;html=1;entryX=1;entryY=1;entryDx=0;entryDy=0;" edge="1" parent="1" source="n1mP7_PYSrHe9957a9sX-55" target="n1mP7_PYSrHe9957a9sX-53">
          <mxGeometry relative="1" as="geometry">
            <Array as="points">
              <mxPoint x="20.5" y="683" />
            </Array>
          </mxGeometry>
        </mxCell>
        <mxCell id="n1mP7_PYSrHe9957a9sX-64" value="1" style="edgeLabel;html=1;align=center;verticalAlign=middle;resizable=0;points=[];" vertex="1" connectable="0" parent="n1mP7_PYSrHe9957a9sX-63">
          <mxGeometry x="-0.0093" y="-1" relative="1" as="geometry">
            <mxPoint as="offset" />
          </mxGeometry>
        </mxCell>
        <mxCell id="n1mP7_PYSrHe9957a9sX-72" style="edgeStyle=orthogonalEdgeStyle;rounded=0;orthogonalLoop=1;jettySize=auto;html=1;entryX=0;entryY=0.5;entryDx=0;entryDy=0;" edge="1" parent="1" source="n1mP7_PYSrHe9957a9sX-55" target="n1mP7_PYSrHe9957a9sX-68">
          <mxGeometry relative="1" as="geometry" />
        </mxCell>
        <mxCell id="n1mP7_PYSrHe9957a9sX-73" value="0" style="edgeLabel;html=1;align=center;verticalAlign=middle;resizable=0;points=[];" vertex="1" connectable="0" parent="n1mP7_PYSrHe9957a9sX-72">
          <mxGeometry x="-0.7855" relative="1" as="geometry">
            <mxPoint as="offset" />
          </mxGeometry>
        </mxCell>
        <mxCell id="n1mP7_PYSrHe9957a9sX-55" value="" style="ellipse;whiteSpace=wrap;html=1;" vertex="1" parent="1">
          <mxGeometry x="43.5" y="613" width="80" height="80" as="geometry" />
        </mxCell>
        <mxCell id="n1mP7_PYSrHe9957a9sX-56" value="q1" style="text;strokeColor=none;fillColor=none;html=1;align=center;verticalAlign=middle;whiteSpace=wrap;rounded=0;fontSize=20;" vertex="1" parent="1">
          <mxGeometry x="56" y="635" width="55" height="36" as="geometry" />
        </mxCell>
        <mxCell id="n1mP7_PYSrHe9957a9sX-58" value="" style="endArrow=classic;html=1;rounded=0;entryX=0;entryY=0.5;entryDx=0;entryDy=0;" edge="1" parent="1">
          <mxGeometry width="50" height="50" relative="1" as="geometry">
            <mxPoint x="-146.5" y="654.41" as="sourcePoint" />
            <mxPoint x="-81.5" y="654.41" as="targetPoint" />
          </mxGeometry>
        </mxCell>
        <mxCell id="n1mP7_PYSrHe9957a9sX-59" value="" style="edgeStyle=elbowEdgeStyle;elbow=vertical;endArrow=classic;html=1;curved=0;rounded=0;endSize=8;startSize=8;fontSize=12;exitX=1;exitY=0;exitDx=0;exitDy=0;entryX=0;entryY=0;entryDx=0;entryDy=0;" edge="1" parent="1">
          <mxGeometry width="50" height="50" relative="1" as="geometry">
            <mxPoint x="-13.215728752538212" y="625.7157287525381" as="sourcePoint" />
            <mxPoint x="-69.78427124746187" y="625.7157287525381" as="targetPoint" />
            <Array as="points">
              <mxPoint x="-40.27999999999997" y="585" />
            </Array>
          </mxGeometry>
        </mxCell>
        <mxCell id="n1mP7_PYSrHe9957a9sX-60" value="1" style="edgeLabel;html=1;align=center;verticalAlign=middle;resizable=0;points=[];fontSize=12;" vertex="1" connectable="0" parent="n1mP7_PYSrHe9957a9sX-59">
          <mxGeometry x="0.0534" relative="1" as="geometry">
            <mxPoint x="4" as="offset" />
          </mxGeometry>
        </mxCell>
        <mxCell id="n1mP7_PYSrHe9957a9sX-61" style="edgeStyle=orthogonalEdgeStyle;rounded=0;orthogonalLoop=1;jettySize=auto;html=1;entryX=0.005;entryY=0.529;entryDx=0;entryDy=0;entryPerimeter=0;" edge="1" parent="1" source="n1mP7_PYSrHe9957a9sX-53" target="n1mP7_PYSrHe9957a9sX-55">
          <mxGeometry relative="1" as="geometry" />
        </mxCell>
        <mxCell id="n1mP7_PYSrHe9957a9sX-62" value="0" style="edgeLabel;html=1;align=center;verticalAlign=middle;resizable=0;points=[];" vertex="1" connectable="0" parent="n1mP7_PYSrHe9957a9sX-61">
          <mxGeometry x="0.0806" y="1" relative="1" as="geometry">
            <mxPoint as="offset" />
          </mxGeometry>
        </mxCell>
        <mxCell id="n1mP7_PYSrHe9957a9sX-74" style="edgeStyle=orthogonalEdgeStyle;rounded=0;orthogonalLoop=1;jettySize=auto;html=1;entryX=0.5;entryY=1;entryDx=0;entryDy=0;" edge="1" parent="1" source="n1mP7_PYSrHe9957a9sX-68" target="n1mP7_PYSrHe9957a9sX-53">
          <mxGeometry relative="1" as="geometry">
            <Array as="points">
              <mxPoint x="185.5" y="715" />
              <mxPoint x="-41.5" y="715" />
            </Array>
          </mxGeometry>
        </mxCell>
        <mxCell id="n1mP7_PYSrHe9957a9sX-75" value="1" style="edgeLabel;html=1;align=center;verticalAlign=middle;resizable=0;points=[];" vertex="1" connectable="0" parent="n1mP7_PYSrHe9957a9sX-74">
          <mxGeometry x="0.0103" relative="1" as="geometry">
            <mxPoint as="offset" />
          </mxGeometry>
        </mxCell>
        <mxCell id="n1mP7_PYSrHe9957a9sX-78" style="edgeStyle=orthogonalEdgeStyle;rounded=0;orthogonalLoop=1;jettySize=auto;html=1;entryX=0;entryY=0.5;entryDx=0;entryDy=0;" edge="1" parent="1" source="n1mP7_PYSrHe9957a9sX-68" target="n1mP7_PYSrHe9957a9sX-76">
          <mxGeometry relative="1" as="geometry" />
        </mxCell>
        <mxCell id="n1mP7_PYSrHe9957a9sX-79" value="0" style="edgeLabel;html=1;align=center;verticalAlign=middle;resizable=0;points=[];" vertex="1" connectable="0" parent="n1mP7_PYSrHe9957a9sX-78">
          <mxGeometry x="0.5202" y="-1" relative="1" as="geometry">
            <mxPoint as="offset" />
          </mxGeometry>
        </mxCell>
        <mxCell id="n1mP7_PYSrHe9957a9sX-68" value="" style="ellipse;whiteSpace=wrap;html=1;" vertex="1" parent="1">
          <mxGeometry x="145" y="613" width="80" height="80" as="geometry" />
        </mxCell>
        <mxCell id="n1mP7_PYSrHe9957a9sX-69" value="q2" style="text;strokeColor=none;fillColor=none;html=1;align=center;verticalAlign=middle;whiteSpace=wrap;rounded=0;fontSize=20;" vertex="1" parent="1">
          <mxGeometry x="157.5" y="635" width="55" height="36" as="geometry" />
        </mxCell>
        <mxCell id="n1mP7_PYSrHe9957a9sX-85" style="edgeStyle=orthogonalEdgeStyle;rounded=0;orthogonalLoop=1;jettySize=auto;html=1;entryX=0;entryY=0.5;entryDx=0;entryDy=0;" edge="1" parent="1" source="n1mP7_PYSrHe9957a9sX-76" target="n1mP7_PYSrHe9957a9sX-83">
          <mxGeometry relative="1" as="geometry" />
        </mxCell>
        <mxCell id="n1mP7_PYSrHe9957a9sX-86" value="1" style="edgeLabel;html=1;align=center;verticalAlign=middle;resizable=0;points=[];" vertex="1" connectable="0" parent="n1mP7_PYSrHe9957a9sX-85">
          <mxGeometry x="0.047" relative="1" as="geometry">
            <mxPoint as="offset" />
          </mxGeometry>
        </mxCell>
        <mxCell id="n1mP7_PYSrHe9957a9sX-76" value="" style="ellipse;whiteSpace=wrap;html=1;" vertex="1" parent="1">
          <mxGeometry x="246.5" y="613" width="80" height="80" as="geometry" />
        </mxCell>
        <mxCell id="n1mP7_PYSrHe9957a9sX-77" value="q3" style="text;strokeColor=none;fillColor=none;html=1;align=center;verticalAlign=middle;whiteSpace=wrap;rounded=0;fontSize=20;" vertex="1" parent="1">
          <mxGeometry x="259" y="635" width="55" height="36" as="geometry" />
        </mxCell>
        <mxCell id="n1mP7_PYSrHe9957a9sX-80" value="" style="edgeStyle=elbowEdgeStyle;elbow=vertical;endArrow=classic;html=1;curved=0;rounded=0;endSize=8;startSize=8;fontSize=12;exitX=1;exitY=0;exitDx=0;exitDy=0;entryX=0;entryY=0;entryDx=0;entryDy=0;" edge="1" parent="1">
          <mxGeometry width="50" height="50" relative="1" as="geometry">
            <mxPoint x="314.0042712474618" y="622.7157287525381" as="sourcePoint" />
            <mxPoint x="257.4357287525381" y="622.7157287525381" as="targetPoint" />
            <Array as="points">
              <mxPoint x="286.94000000000005" y="582" />
            </Array>
          </mxGeometry>
        </mxCell>
        <mxCell id="n1mP7_PYSrHe9957a9sX-81" value="0" style="edgeLabel;html=1;align=center;verticalAlign=middle;resizable=0;points=[];fontSize=12;" vertex="1" connectable="0" parent="n1mP7_PYSrHe9957a9sX-80">
          <mxGeometry x="0.0534" relative="1" as="geometry">
            <mxPoint x="4" as="offset" />
          </mxGeometry>
        </mxCell>
        <mxCell id="n1mP7_PYSrHe9957a9sX-87" style="edgeStyle=orthogonalEdgeStyle;rounded=0;orthogonalLoop=1;jettySize=auto;html=1;entryX=1;entryY=1;entryDx=0;entryDy=0;" edge="1" parent="1" source="n1mP7_PYSrHe9957a9sX-83" target="n1mP7_PYSrHe9957a9sX-76">
          <mxGeometry relative="1" as="geometry">
            <Array as="points">
              <mxPoint x="336.5" y="681" />
            </Array>
          </mxGeometry>
        </mxCell>
        <mxCell id="n1mP7_PYSrHe9957a9sX-88" value="0" style="edgeLabel;html=1;align=center;verticalAlign=middle;resizable=0;points=[];" vertex="1" connectable="0" parent="n1mP7_PYSrHe9957a9sX-87">
          <mxGeometry x="-0.0604" y="1" relative="1" as="geometry">
            <mxPoint as="offset" />
          </mxGeometry>
        </mxCell>
        <mxCell id="n1mP7_PYSrHe9957a9sX-83" value="" style="ellipse;whiteSpace=wrap;html=1;" vertex="1" parent="1">
          <mxGeometry x="356.5" y="613" width="80" height="80" as="geometry" />
        </mxCell>
        <mxCell id="n1mP7_PYSrHe9957a9sX-96" value="" style="ellipse;whiteSpace=wrap;html=1;aspect=fixed;" vertex="1" parent="1">
          <mxGeometry x="363" y="619.5" width="67" height="67" as="geometry" />
        </mxCell>
        <mxCell id="n1mP7_PYSrHe9957a9sX-84" value="q4" style="text;strokeColor=none;fillColor=none;html=1;align=center;verticalAlign=middle;whiteSpace=wrap;rounded=0;fontSize=20;" vertex="1" parent="1">
          <mxGeometry x="369" y="635" width="55" height="36" as="geometry" />
        </mxCell>
        <mxCell id="n1mP7_PYSrHe9957a9sX-89" value="" style="edgeStyle=elbowEdgeStyle;elbow=vertical;endArrow=classic;html=1;curved=0;rounded=0;endSize=8;startSize=8;fontSize=12;exitX=1;exitY=0;exitDx=0;exitDy=0;entryX=0;entryY=0;entryDx=0;entryDy=0;" edge="1" parent="1">
          <mxGeometry width="50" height="50" relative="1" as="geometry">
            <mxPoint x="424.0042712474618" y="623.7157287525381" as="sourcePoint" />
            <mxPoint x="367.4357287525381" y="623.7157287525381" as="targetPoint" />
            <Array as="points">
              <mxPoint x="396.94000000000005" y="583" />
            </Array>
          </mxGeometry>
        </mxCell>
        <mxCell id="n1mP7_PYSrHe9957a9sX-90" value="1" style="edgeLabel;html=1;align=center;verticalAlign=middle;resizable=0;points=[];fontSize=12;" vertex="1" connectable="0" parent="n1mP7_PYSrHe9957a9sX-89">
          <mxGeometry x="0.0534" relative="1" as="geometry">
            <mxPoint x="4" as="offset" />
          </mxGeometry>
        </mxCell>
        <mxCell id="n1mP7_PYSrHe9957a9sX-95" value="L2" style="text;strokeColor=none;fillColor=none;html=1;align=center;verticalAlign=middle;whiteSpace=wrap;rounded=0;fontSize=20;" vertex="1" parent="1">
          <mxGeometry x="-218" y="514" width="55" height="36" as="geometry" />
        </mxCell>
        <mxCell id="n1mP7_PYSrHe9957a9sX-101" style="edgeStyle=orthogonalEdgeStyle;rounded=0;orthogonalLoop=1;jettySize=auto;html=1;entryX=0;entryY=0.5;entryDx=0;entryDy=0;" edge="1" parent="1" source="n1mP7_PYSrHe9957a9sX-97" target="n1mP7_PYSrHe9957a9sX-99">
          <mxGeometry relative="1" as="geometry" />
        </mxCell>
        <mxCell id="n1mP7_PYSrHe9957a9sX-102" value="1" style="edgeLabel;html=1;align=center;verticalAlign=middle;resizable=0;points=[];" vertex="1" connectable="0" parent="n1mP7_PYSrHe9957a9sX-101">
          <mxGeometry x="-0.0348" relative="1" as="geometry">
            <mxPoint as="offset" />
          </mxGeometry>
        </mxCell>
        <mxCell id="n1mP7_PYSrHe9957a9sX-113" style="edgeStyle=orthogonalEdgeStyle;rounded=0;orthogonalLoop=1;jettySize=auto;html=1;entryX=0.5;entryY=1;entryDx=0;entryDy=0;" edge="1" parent="1" source="n1mP7_PYSrHe9957a9sX-97" target="n1mP7_PYSrHe9957a9sX-103">
          <mxGeometry relative="1" as="geometry">
            <Array as="points">
              <mxPoint x="881.5" y="168.05999999999995" />
              <mxPoint x="1123.5" y="168.05999999999995" />
            </Array>
          </mxGeometry>
        </mxCell>
        <mxCell id="n1mP7_PYSrHe9957a9sX-97" value="" style="ellipse;whiteSpace=wrap;html=1;" vertex="1" parent="1">
          <mxGeometry x="842" y="68.05999999999995" width="80" height="80" as="geometry" />
        </mxCell>
        <mxCell id="n1mP7_PYSrHe9957a9sX-98" value="q0" style="text;strokeColor=none;fillColor=none;html=1;align=center;verticalAlign=middle;whiteSpace=wrap;rounded=0;fontSize=20;" vertex="1" parent="1">
          <mxGeometry x="854.5" y="90.05999999999995" width="55" height="36" as="geometry" />
        </mxCell>
        <mxCell id="n1mP7_PYSrHe9957a9sX-132" style="edgeStyle=orthogonalEdgeStyle;rounded=0;orthogonalLoop=1;jettySize=auto;html=1;entryX=0.5;entryY=0;entryDx=0;entryDy=0;" edge="1" parent="1" source="n1mP7_PYSrHe9957a9sX-99" target="n1mP7_PYSrHe9957a9sX-127">
          <mxGeometry relative="1" as="geometry">
            <Array as="points">
              <mxPoint x="1007.5" y="12.059999999999945" />
              <mxPoint x="1368.5" y="12.059999999999945" />
            </Array>
          </mxGeometry>
        </mxCell>
        <mxCell id="n1mP7_PYSrHe9957a9sX-133" value="0" style="edgeLabel;html=1;align=center;verticalAlign=middle;resizable=0;points=[];" vertex="1" connectable="0" parent="n1mP7_PYSrHe9957a9sX-132">
          <mxGeometry x="-0.0026" relative="1" as="geometry">
            <mxPoint as="offset" />
          </mxGeometry>
        </mxCell>
        <mxCell id="n1mP7_PYSrHe9957a9sX-99" value="" style="ellipse;whiteSpace=wrap;html=1;" vertex="1" parent="1">
          <mxGeometry x="967" y="68.05999999999995" width="80" height="80" as="geometry" />
        </mxCell>
        <mxCell id="n1mP7_PYSrHe9957a9sX-100" value="q1" style="text;strokeColor=none;fillColor=none;html=1;align=center;verticalAlign=middle;whiteSpace=wrap;rounded=0;fontSize=20;" vertex="1" parent="1">
          <mxGeometry x="979.5" y="90.05999999999995" width="55" height="36" as="geometry" />
        </mxCell>
        <mxCell id="n1mP7_PYSrHe9957a9sX-119" style="edgeStyle=orthogonalEdgeStyle;rounded=0;orthogonalLoop=1;jettySize=auto;html=1;exitX=1;exitY=1;exitDx=0;exitDy=0;entryX=0;entryY=1;entryDx=0;entryDy=0;" edge="1" parent="1" source="n1mP7_PYSrHe9957a9sX-103" target="n1mP7_PYSrHe9957a9sX-114">
          <mxGeometry relative="1" as="geometry" />
        </mxCell>
        <mxCell id="n1mP7_PYSrHe9957a9sX-120" value="1" style="edgeLabel;html=1;align=center;verticalAlign=middle;resizable=0;points=[];" vertex="1" connectable="0" parent="n1mP7_PYSrHe9957a9sX-119">
          <mxGeometry x="-0.0653" y="-1" relative="1" as="geometry">
            <mxPoint as="offset" />
          </mxGeometry>
        </mxCell>
        <mxCell id="n1mP7_PYSrHe9957a9sX-103" value="" style="ellipse;whiteSpace=wrap;html=1;" vertex="1" parent="1">
          <mxGeometry x="1083.5" y="68.05999999999995" width="80" height="80" as="geometry" />
        </mxCell>
        <mxCell id="n1mP7_PYSrHe9957a9sX-104" value="q2" style="text;strokeColor=none;fillColor=none;html=1;align=center;verticalAlign=middle;whiteSpace=wrap;rounded=0;fontSize=20;" vertex="1" parent="1">
          <mxGeometry x="1096" y="90.05999999999995" width="55" height="36" as="geometry" />
        </mxCell>
        <mxCell id="n1mP7_PYSrHe9957a9sX-107" value="" style="edgeStyle=elbowEdgeStyle;elbow=vertical;endArrow=classic;html=1;curved=0;rounded=0;endSize=8;startSize=8;fontSize=12;exitX=1;exitY=0;exitDx=0;exitDy=0;entryX=0;entryY=0;entryDx=0;entryDy=0;" edge="1" parent="1">
          <mxGeometry width="50" height="50" relative="1" as="geometry">
            <mxPoint x="1035.2842712474617" y="80.77572875253804" as="sourcePoint" />
            <mxPoint x="978.7157287525381" y="80.77572875253804" as="targetPoint" />
            <Array as="points">
              <mxPoint x="1008.22" y="40.059999999999945" />
            </Array>
          </mxGeometry>
        </mxCell>
        <mxCell id="n1mP7_PYSrHe9957a9sX-108" value="1" style="edgeLabel;html=1;align=center;verticalAlign=middle;resizable=0;points=[];fontSize=12;" vertex="1" connectable="0" parent="n1mP7_PYSrHe9957a9sX-107">
          <mxGeometry x="0.0534" relative="1" as="geometry">
            <mxPoint x="4" as="offset" />
          </mxGeometry>
        </mxCell>
        <mxCell id="n1mP7_PYSrHe9957a9sX-114" value="" style="ellipse;whiteSpace=wrap;html=1;" vertex="1" parent="1">
          <mxGeometry x="1210.5" y="68.05999999999995" width="80" height="80" as="geometry" />
        </mxCell>
        <mxCell id="n1mP7_PYSrHe9957a9sX-121" value="" style="ellipse;whiteSpace=wrap;html=1;aspect=fixed;" vertex="1" parent="1">
          <mxGeometry x="1217" y="74.55999999999995" width="67" height="67" as="geometry" />
        </mxCell>
        <mxCell id="n1mP7_PYSrHe9957a9sX-115" value="q3" style="text;strokeColor=none;fillColor=none;html=1;align=center;verticalAlign=middle;whiteSpace=wrap;rounded=0;fontSize=20;" vertex="1" parent="1">
          <mxGeometry x="1223" y="90.05999999999995" width="55" height="36" as="geometry" />
        </mxCell>
        <mxCell id="n1mP7_PYSrHe9957a9sX-117" value="" style="edgeStyle=elbowEdgeStyle;elbow=vertical;endArrow=classic;html=1;curved=0;rounded=0;endSize=8;startSize=8;fontSize=12;exitX=1;exitY=0;exitDx=0;exitDy=0;entryX=0;entryY=0;entryDx=0;entryDy=0;" edge="1" parent="1">
          <mxGeometry width="50" height="50" relative="1" as="geometry">
            <mxPoint x="1152.5642712474619" y="81.77572875253804" as="sourcePoint" />
            <mxPoint x="1095.995728752538" y="81.77572875253804" as="targetPoint" />
            <Array as="points">
              <mxPoint x="1125.5" y="41.059999999999945" />
            </Array>
          </mxGeometry>
        </mxCell>
        <mxCell id="n1mP7_PYSrHe9957a9sX-118" value="0" style="edgeLabel;html=1;align=center;verticalAlign=middle;resizable=0;points=[];fontSize=12;" vertex="1" connectable="0" parent="n1mP7_PYSrHe9957a9sX-117">
          <mxGeometry x="0.0534" relative="1" as="geometry">
            <mxPoint x="4" as="offset" />
          </mxGeometry>
        </mxCell>
        <mxCell id="n1mP7_PYSrHe9957a9sX-122" value="" style="edgeStyle=elbowEdgeStyle;elbow=vertical;endArrow=classic;html=1;curved=0;rounded=0;endSize=8;startSize=8;fontSize=12;exitX=1;exitY=0;exitDx=0;exitDy=0;entryX=0;entryY=0;entryDx=0;entryDy=0;" edge="1" parent="1">
          <mxGeometry width="50" height="50" relative="1" as="geometry">
            <mxPoint x="1278.004271247462" y="77.77572875253804" as="sourcePoint" />
            <mxPoint x="1221.4357287525381" y="77.77572875253804" as="targetPoint" />
            <Array as="points">
              <mxPoint x="1250.94" y="37.059999999999945" />
            </Array>
          </mxGeometry>
        </mxCell>
        <mxCell id="n1mP7_PYSrHe9957a9sX-123" value="1" style="edgeLabel;html=1;align=center;verticalAlign=middle;resizable=0;points=[];fontSize=12;" vertex="1" connectable="0" parent="n1mP7_PYSrHe9957a9sX-122">
          <mxGeometry x="0.0534" relative="1" as="geometry">
            <mxPoint x="4" as="offset" />
          </mxGeometry>
        </mxCell>
        <mxCell id="n1mP7_PYSrHe9957a9sX-125" style="edgeStyle=orthogonalEdgeStyle;rounded=0;orthogonalLoop=1;jettySize=auto;html=1;entryX=1;entryY=0.5;entryDx=0;entryDy=0;" edge="1" parent="1" source="n1mP7_PYSrHe9957a9sX-114" target="n1mP7_PYSrHe9957a9sX-103">
          <mxGeometry relative="1" as="geometry">
            <Array as="points">
              <mxPoint x="1174.5" y="108.05999999999995" />
              <mxPoint x="1174.5" y="108.05999999999995" />
            </Array>
          </mxGeometry>
        </mxCell>
        <mxCell id="n1mP7_PYSrHe9957a9sX-126" value="0" style="edgeLabel;html=1;align=center;verticalAlign=middle;resizable=0;points=[];" vertex="1" connectable="0" parent="n1mP7_PYSrHe9957a9sX-125">
          <mxGeometry x="-0.0053" relative="1" as="geometry">
            <mxPoint as="offset" />
          </mxGeometry>
        </mxCell>
        <mxCell id="n1mP7_PYSrHe9957a9sX-130" style="edgeStyle=orthogonalEdgeStyle;rounded=0;orthogonalLoop=1;jettySize=auto;html=1;entryX=0.5;entryY=1;entryDx=0;entryDy=0;" edge="1" parent="1" source="n1mP7_PYSrHe9957a9sX-127" target="n1mP7_PYSrHe9957a9sX-99">
          <mxGeometry relative="1" as="geometry">
            <Array as="points">
              <mxPoint x="1368.5" y="199.05999999999995" />
              <mxPoint x="1007.5" y="199.05999999999995" />
            </Array>
          </mxGeometry>
        </mxCell>
        <mxCell id="n1mP7_PYSrHe9957a9sX-131" value="1" style="edgeLabel;html=1;align=center;verticalAlign=middle;resizable=0;points=[];" vertex="1" connectable="0" parent="n1mP7_PYSrHe9957a9sX-130">
          <mxGeometry x="-0.1537" y="1" relative="1" as="geometry">
            <mxPoint as="offset" />
          </mxGeometry>
        </mxCell>
        <mxCell id="n1mP7_PYSrHe9957a9sX-127" value="" style="ellipse;whiteSpace=wrap;html=1;" vertex="1" parent="1">
          <mxGeometry x="1328.5" y="68.05999999999995" width="80" height="80" as="geometry" />
        </mxCell>
        <mxCell id="n1mP7_PYSrHe9957a9sX-128" value="" style="ellipse;whiteSpace=wrap;html=1;aspect=fixed;" vertex="1" parent="1">
          <mxGeometry x="1335" y="74.55999999999995" width="67" height="67" as="geometry" />
        </mxCell>
        <mxCell id="n1mP7_PYSrHe9957a9sX-129" value="q4" style="text;strokeColor=none;fillColor=none;html=1;align=center;verticalAlign=middle;whiteSpace=wrap;rounded=0;fontSize=20;" vertex="1" parent="1">
          <mxGeometry x="1341" y="90.05999999999995" width="55" height="36" as="geometry" />
        </mxCell>
        <mxCell id="n1mP7_PYSrHe9957a9sX-134" value="" style="edgeStyle=elbowEdgeStyle;elbow=horizontal;endArrow=classic;html=1;curved=0;rounded=0;endSize=8;startSize=8;fontSize=12;exitX=1;exitY=1;exitDx=0;exitDy=0;entryX=1;entryY=0;entryDx=0;entryDy=0;" edge="1" parent="1">
          <mxGeometry width="50" height="50" relative="1" as="geometry">
            <mxPoint x="1396.004271247462" y="136.34427124746185" as="sourcePoint" />
            <mxPoint x="1396.004271247462" y="79.77572875253827" as="targetPoint" />
            <Array as="points">
              <mxPoint x="1450" y="106.13" />
            </Array>
          </mxGeometry>
        </mxCell>
        <mxCell id="n1mP7_PYSrHe9957a9sX-135" value="0" style="edgeLabel;html=1;align=center;verticalAlign=middle;resizable=0;points=[];fontSize=12;" vertex="1" connectable="0" parent="n1mP7_PYSrHe9957a9sX-134">
          <mxGeometry x="0.0534" relative="1" as="geometry">
            <mxPoint x="4" as="offset" />
          </mxGeometry>
        </mxCell>
        <mxCell id="n1mP7_PYSrHe9957a9sX-136" value="" style="endArrow=classic;html=1;rounded=0;entryX=0;entryY=0.5;entryDx=0;entryDy=0;" edge="1" parent="1">
          <mxGeometry width="50" height="50" relative="1" as="geometry">
            <mxPoint x="777" y="107.38999999999987" as="sourcePoint" />
            <mxPoint x="842" y="107.38999999999987" as="targetPoint" />
          </mxGeometry>
        </mxCell>
        <mxCell id="n1mP7_PYSrHe9957a9sX-142" value="L3" style="text;strokeColor=none;fillColor=none;html=1;align=center;verticalAlign=middle;whiteSpace=wrap;rounded=0;fontSize=20;" vertex="1" parent="1">
          <mxGeometry x="718" y="-64" width="55" height="36" as="geometry" />
        </mxCell>
        <mxCell id="n1mP7_PYSrHe9957a9sX-186" style="edgeStyle=orthogonalEdgeStyle;rounded=0;orthogonalLoop=1;jettySize=auto;html=1;entryX=0;entryY=0.5;entryDx=0;entryDy=0;" edge="1" parent="1" source="n1mP7_PYSrHe9957a9sX-143" target="n1mP7_PYSrHe9957a9sX-184">
          <mxGeometry relative="1" as="geometry">
            <Array as="points">
              <mxPoint x="882" y="657" />
            </Array>
          </mxGeometry>
        </mxCell>
        <mxCell id="n1mP7_PYSrHe9957a9sX-194" value="1" style="edgeLabel;html=1;align=center;verticalAlign=middle;resizable=0;points=[];" vertex="1" connectable="0" parent="n1mP7_PYSrHe9957a9sX-186">
          <mxGeometry x="0.2571" y="1" relative="1" as="geometry">
            <mxPoint as="offset" />
          </mxGeometry>
        </mxCell>
        <mxCell id="n1mP7_PYSrHe9957a9sX-143" value="" style="ellipse;whiteSpace=wrap;html=1;" vertex="1" parent="1">
          <mxGeometry x="842" y="515" width="80" height="80" as="geometry" />
        </mxCell>
        <mxCell id="n1mP7_PYSrHe9957a9sX-149" style="edgeStyle=orthogonalEdgeStyle;rounded=0;orthogonalLoop=1;jettySize=auto;html=1;entryX=0;entryY=0.5;entryDx=0;entryDy=0;" edge="1" parent="1" target="n1mP7_PYSrHe9957a9sX-147">
          <mxGeometry relative="1" as="geometry">
            <mxPoint x="882" y="514" as="sourcePoint" />
            <Array as="points">
              <mxPoint x="882" y="478" />
            </Array>
          </mxGeometry>
        </mxCell>
        <mxCell id="n1mP7_PYSrHe9957a9sX-152" value="0" style="edgeLabel;html=1;align=center;verticalAlign=middle;resizable=0;points=[];" vertex="1" connectable="0" parent="n1mP7_PYSrHe9957a9sX-149">
          <mxGeometry x="-0.0426" relative="1" as="geometry">
            <mxPoint as="offset" />
          </mxGeometry>
        </mxCell>
        <mxCell id="n1mP7_PYSrHe9957a9sX-144" value="q0" style="text;strokeColor=none;fillColor=none;html=1;align=center;verticalAlign=middle;whiteSpace=wrap;rounded=0;fontSize=20;" vertex="1" parent="1">
          <mxGeometry x="854.5" y="537" width="55" height="36" as="geometry" />
        </mxCell>
        <mxCell id="n1mP7_PYSrHe9957a9sX-146" value="" style="endArrow=classic;html=1;rounded=0;entryX=0;entryY=0.5;entryDx=0;entryDy=0;" edge="1" parent="1">
          <mxGeometry width="50" height="50" relative="1" as="geometry">
            <mxPoint x="777" y="554.3299999999999" as="sourcePoint" />
            <mxPoint x="842" y="554.3299999999999" as="targetPoint" />
          </mxGeometry>
        </mxCell>
        <mxCell id="n1mP7_PYSrHe9957a9sX-158" style="edgeStyle=orthogonalEdgeStyle;rounded=0;orthogonalLoop=1;jettySize=auto;html=1;entryX=0;entryY=0.5;entryDx=0;entryDy=0;" edge="1" parent="1" source="n1mP7_PYSrHe9957a9sX-147" target="n1mP7_PYSrHe9957a9sX-153">
          <mxGeometry relative="1" as="geometry" />
        </mxCell>
        <mxCell id="n1mP7_PYSrHe9957a9sX-159" value="1" style="edgeLabel;html=1;align=center;verticalAlign=middle;resizable=0;points=[];" vertex="1" connectable="0" parent="n1mP7_PYSrHe9957a9sX-158">
          <mxGeometry x="0.2903" y="1" relative="1" as="geometry">
            <mxPoint as="offset" />
          </mxGeometry>
        </mxCell>
        <mxCell id="n1mP7_PYSrHe9957a9sX-147" value="" style="ellipse;whiteSpace=wrap;html=1;" vertex="1" parent="1">
          <mxGeometry x="954.5" y="438" width="80" height="80" as="geometry" />
        </mxCell>
        <mxCell id="n1mP7_PYSrHe9957a9sX-148" value="q1" style="text;strokeColor=none;fillColor=none;html=1;align=center;verticalAlign=middle;whiteSpace=wrap;rounded=0;fontSize=20;" vertex="1" parent="1">
          <mxGeometry x="967" y="460" width="55" height="36" as="geometry" />
        </mxCell>
        <mxCell id="n1mP7_PYSrHe9957a9sX-166" style="edgeStyle=orthogonalEdgeStyle;rounded=0;orthogonalLoop=1;jettySize=auto;html=1;entryX=0;entryY=0.5;entryDx=0;entryDy=0;" edge="1" parent="1" source="n1mP7_PYSrHe9957a9sX-153" target="n1mP7_PYSrHe9957a9sX-164">
          <mxGeometry relative="1" as="geometry" />
        </mxCell>
        <mxCell id="n1mP7_PYSrHe9957a9sX-167" value="0" style="edgeLabel;html=1;align=center;verticalAlign=middle;resizable=0;points=[];" vertex="1" connectable="0" parent="n1mP7_PYSrHe9957a9sX-166">
          <mxGeometry x="0.3204" y="2" relative="1" as="geometry">
            <mxPoint y="1" as="offset" />
          </mxGeometry>
        </mxCell>
        <mxCell id="n1mP7_PYSrHe9957a9sX-153" value="" style="ellipse;whiteSpace=wrap;html=1;" vertex="1" parent="1">
          <mxGeometry x="1064.5" y="438" width="80" height="80" as="geometry" />
        </mxCell>
        <mxCell id="n1mP7_PYSrHe9957a9sX-154" value="q2" style="text;strokeColor=none;fillColor=none;html=1;align=center;verticalAlign=middle;whiteSpace=wrap;rounded=0;fontSize=20;" vertex="1" parent="1">
          <mxGeometry x="1077" y="460" width="55" height="36" as="geometry" />
        </mxCell>
        <mxCell id="n1mP7_PYSrHe9957a9sX-155" value="" style="edgeStyle=elbowEdgeStyle;elbow=vertical;endArrow=classic;html=1;curved=0;rounded=0;endSize=8;startSize=8;fontSize=12;exitX=1;exitY=0;exitDx=0;exitDy=0;entryX=0;entryY=0;entryDx=0;entryDy=0;" edge="1" parent="1">
          <mxGeometry width="50" height="50" relative="1" as="geometry">
            <mxPoint x="1132.7842712474617" y="449.7157287525381" as="sourcePoint" />
            <mxPoint x="1076.215728752538" y="449.7157287525381" as="targetPoint" />
            <Array as="points">
              <mxPoint x="1105.72" y="409" />
            </Array>
          </mxGeometry>
        </mxCell>
        <mxCell id="n1mP7_PYSrHe9957a9sX-156" value="1" style="edgeLabel;html=1;align=center;verticalAlign=middle;resizable=0;points=[];fontSize=12;" vertex="1" connectable="0" parent="n1mP7_PYSrHe9957a9sX-155">
          <mxGeometry x="0.0534" relative="1" as="geometry">
            <mxPoint x="4" as="offset" />
          </mxGeometry>
        </mxCell>
        <mxCell id="n1mP7_PYSrHe9957a9sX-160" value="" style="edgeStyle=elbowEdgeStyle;elbow=vertical;endArrow=classic;html=1;curved=0;rounded=0;endSize=8;startSize=8;fontSize=12;exitX=1;exitY=0;exitDx=0;exitDy=0;entryX=0;entryY=0;entryDx=0;entryDy=0;" edge="1" parent="1">
          <mxGeometry width="50" height="50" relative="1" as="geometry">
            <mxPoint x="1023.5642712474618" y="449.7157287525381" as="sourcePoint" />
            <mxPoint x="966.9957287525381" y="449.7157287525381" as="targetPoint" />
            <Array as="points">
              <mxPoint x="996.5" y="409" />
            </Array>
          </mxGeometry>
        </mxCell>
        <mxCell id="n1mP7_PYSrHe9957a9sX-161" value="0" style="edgeLabel;html=1;align=center;verticalAlign=middle;resizable=0;points=[];fontSize=12;" vertex="1" connectable="0" parent="n1mP7_PYSrHe9957a9sX-160">
          <mxGeometry x="0.0534" relative="1" as="geometry">
            <mxPoint x="4" as="offset" />
          </mxGeometry>
        </mxCell>
        <mxCell id="n1mP7_PYSrHe9957a9sX-168" style="edgeStyle=orthogonalEdgeStyle;rounded=0;orthogonalLoop=1;jettySize=auto;html=1;entryX=0.5;entryY=1;entryDx=0;entryDy=0;" edge="1" parent="1" source="n1mP7_PYSrHe9957a9sX-164" target="n1mP7_PYSrHe9957a9sX-147">
          <mxGeometry relative="1" as="geometry">
            <Array as="points">
              <mxPoint x="1213" y="538" />
              <mxPoint x="995" y="538" />
            </Array>
          </mxGeometry>
        </mxCell>
        <mxCell id="n1mP7_PYSrHe9957a9sX-171" style="edgeStyle=orthogonalEdgeStyle;rounded=0;orthogonalLoop=1;jettySize=auto;html=1;entryX=0;entryY=0.5;entryDx=0;entryDy=0;" edge="1" parent="1" source="n1mP7_PYSrHe9957a9sX-164" target="n1mP7_PYSrHe9957a9sX-169">
          <mxGeometry relative="1" as="geometry" />
        </mxCell>
        <mxCell id="n1mP7_PYSrHe9957a9sX-172" value="1" style="edgeLabel;html=1;align=center;verticalAlign=middle;resizable=0;points=[];" vertex="1" connectable="0" parent="n1mP7_PYSrHe9957a9sX-171">
          <mxGeometry x="-0.4894" y="1" relative="1" as="geometry">
            <mxPoint as="offset" />
          </mxGeometry>
        </mxCell>
        <mxCell id="n1mP7_PYSrHe9957a9sX-164" value="" style="ellipse;whiteSpace=wrap;html=1;" vertex="1" parent="1">
          <mxGeometry x="1173" y="438" width="80" height="80" as="geometry" />
        </mxCell>
        <mxCell id="n1mP7_PYSrHe9957a9sX-165" value="q3" style="text;strokeColor=none;fillColor=none;html=1;align=center;verticalAlign=middle;whiteSpace=wrap;rounded=0;fontSize=20;" vertex="1" parent="1">
          <mxGeometry x="1185.5" y="460" width="55" height="36" as="geometry" />
        </mxCell>
        <mxCell id="n1mP7_PYSrHe9957a9sX-180" style="edgeStyle=orthogonalEdgeStyle;rounded=0;orthogonalLoop=1;jettySize=auto;html=1;entryX=0;entryY=0.5;entryDx=0;entryDy=0;" edge="1" parent="1" source="n1mP7_PYSrHe9957a9sX-169" target="n1mP7_PYSrHe9957a9sX-175">
          <mxGeometry relative="1" as="geometry" />
        </mxCell>
        <mxCell id="n1mP7_PYSrHe9957a9sX-181" value="0" style="edgeLabel;html=1;align=center;verticalAlign=middle;resizable=0;points=[];" vertex="1" connectable="0" parent="n1mP7_PYSrHe9957a9sX-180">
          <mxGeometry x="0.2392" relative="1" as="geometry">
            <mxPoint as="offset" />
          </mxGeometry>
        </mxCell>
        <mxCell id="n1mP7_PYSrHe9957a9sX-169" value="" style="ellipse;whiteSpace=wrap;html=1;" vertex="1" parent="1">
          <mxGeometry x="1286" y="438" width="80" height="80" as="geometry" />
        </mxCell>
        <mxCell id="n1mP7_PYSrHe9957a9sX-170" value="q4" style="text;strokeColor=none;fillColor=none;html=1;align=center;verticalAlign=middle;whiteSpace=wrap;rounded=0;fontSize=20;" vertex="1" parent="1">
          <mxGeometry x="1298.5" y="460" width="55" height="36" as="geometry" />
        </mxCell>
        <mxCell id="n1mP7_PYSrHe9957a9sX-173" value="" style="edgeStyle=elbowEdgeStyle;elbow=vertical;endArrow=classic;html=1;curved=0;rounded=0;endSize=8;startSize=8;fontSize=12;exitX=1;exitY=0;exitDx=0;exitDy=0;entryX=0;entryY=0;entryDx=0;entryDy=0;" edge="1" parent="1">
          <mxGeometry width="50" height="50" relative="1" as="geometry">
            <mxPoint x="1355.5642712474619" y="449.7157287525381" as="sourcePoint" />
            <mxPoint x="1298.995728752538" y="449.7157287525381" as="targetPoint" />
            <Array as="points">
              <mxPoint x="1328.5" y="409" />
            </Array>
          </mxGeometry>
        </mxCell>
        <mxCell id="n1mP7_PYSrHe9957a9sX-174" value="1" style="edgeLabel;html=1;align=center;verticalAlign=middle;resizable=0;points=[];fontSize=12;" vertex="1" connectable="0" parent="n1mP7_PYSrHe9957a9sX-173">
          <mxGeometry x="0.0534" relative="1" as="geometry">
            <mxPoint x="4" as="offset" />
          </mxGeometry>
        </mxCell>
        <mxCell id="n1mP7_PYSrHe9957a9sX-182" style="edgeStyle=orthogonalEdgeStyle;rounded=0;orthogonalLoop=1;jettySize=auto;html=1;entryX=0.5;entryY=1;entryDx=0;entryDy=0;" edge="1" parent="1" source="n1mP7_PYSrHe9957a9sX-175" target="n1mP7_PYSrHe9957a9sX-169">
          <mxGeometry relative="1" as="geometry">
            <Array as="points">
              <mxPoint x="1436" y="538" />
              <mxPoint x="1326" y="538" />
            </Array>
          </mxGeometry>
        </mxCell>
        <mxCell id="n1mP7_PYSrHe9957a9sX-183" value="1" style="edgeLabel;html=1;align=center;verticalAlign=middle;resizable=0;points=[];" vertex="1" connectable="0" parent="n1mP7_PYSrHe9957a9sX-182">
          <mxGeometry x="-0.0018" y="1" relative="1" as="geometry">
            <mxPoint as="offset" />
          </mxGeometry>
        </mxCell>
        <mxCell id="n1mP7_PYSrHe9957a9sX-175" value="" style="ellipse;whiteSpace=wrap;html=1;" vertex="1" parent="1">
          <mxGeometry x="1396" y="438" width="80" height="80" as="geometry" />
        </mxCell>
        <mxCell id="n1mP7_PYSrHe9957a9sX-205" value="" style="ellipse;whiteSpace=wrap;html=1;aspect=fixed;" vertex="1" parent="1">
          <mxGeometry x="1402.5" y="444.5" width="67" height="67" as="geometry" />
        </mxCell>
        <mxCell id="n1mP7_PYSrHe9957a9sX-176" value="q5" style="text;strokeColor=none;fillColor=none;html=1;align=center;verticalAlign=middle;whiteSpace=wrap;rounded=0;fontSize=20;" vertex="1" parent="1">
          <mxGeometry x="1408.5" y="460" width="55" height="36" as="geometry" />
        </mxCell>
        <mxCell id="n1mP7_PYSrHe9957a9sX-177" value="" style="edgeStyle=elbowEdgeStyle;elbow=vertical;endArrow=classic;html=1;curved=0;rounded=0;endSize=8;startSize=8;fontSize=12;exitX=1;exitY=0;exitDx=0;exitDy=0;entryX=0;entryY=0;entryDx=0;entryDy=0;" edge="1" parent="1">
          <mxGeometry width="50" height="50" relative="1" as="geometry">
            <mxPoint x="1464.2842712474617" y="449.7157287525381" as="sourcePoint" />
            <mxPoint x="1407.715728752538" y="449.7157287525381" as="targetPoint" />
            <Array as="points">
              <mxPoint x="1437.22" y="409" />
            </Array>
          </mxGeometry>
        </mxCell>
        <mxCell id="n1mP7_PYSrHe9957a9sX-178" value="0" style="edgeLabel;html=1;align=center;verticalAlign=middle;resizable=0;points=[];fontSize=12;" vertex="1" connectable="0" parent="n1mP7_PYSrHe9957a9sX-177">
          <mxGeometry x="0.0534" relative="1" as="geometry">
            <mxPoint x="4" as="offset" />
          </mxGeometry>
        </mxCell>
        <mxCell id="n1mP7_PYSrHe9957a9sX-192" style="edgeStyle=orthogonalEdgeStyle;rounded=0;orthogonalLoop=1;jettySize=auto;html=1;entryX=0;entryY=0.5;entryDx=0;entryDy=0;" edge="1" parent="1" source="n1mP7_PYSrHe9957a9sX-184" target="n1mP7_PYSrHe9957a9sX-190">
          <mxGeometry relative="1" as="geometry" />
        </mxCell>
        <mxCell id="n1mP7_PYSrHe9957a9sX-193" value="0" style="edgeLabel;html=1;align=center;verticalAlign=middle;resizable=0;points=[];" vertex="1" connectable="0" parent="n1mP7_PYSrHe9957a9sX-192">
          <mxGeometry x="-0.1821" y="1" relative="1" as="geometry">
            <mxPoint as="offset" />
          </mxGeometry>
        </mxCell>
        <mxCell id="n1mP7_PYSrHe9957a9sX-184" value="" style="ellipse;whiteSpace=wrap;html=1;" vertex="1" parent="1">
          <mxGeometry x="954.5" y="617" width="80" height="80" as="geometry" />
        </mxCell>
        <mxCell id="n1mP7_PYSrHe9957a9sX-185" value="q6" style="text;strokeColor=none;fillColor=none;html=1;align=center;verticalAlign=middle;whiteSpace=wrap;rounded=0;fontSize=20;" vertex="1" parent="1">
          <mxGeometry x="967" y="639" width="55" height="36" as="geometry" />
        </mxCell>
        <mxCell id="n1mP7_PYSrHe9957a9sX-187" value="" style="edgeStyle=elbowEdgeStyle;elbow=vertical;endArrow=classic;html=1;curved=0;rounded=0;endSize=8;startSize=8;fontSize=12;entryX=1;entryY=1;entryDx=0;entryDy=0;exitX=0;exitY=1;exitDx=0;exitDy=0;" edge="1" parent="1">
          <mxGeometry width="50" height="50" relative="1" as="geometry">
            <mxPoint x="966.2157287525381" y="684.0042712474622" as="sourcePoint" />
            <mxPoint x="1022.7842712474619" y="684.0042712474622" as="targetPoint" />
            <Array as="points">
              <mxPoint x="995" y="733.72" />
            </Array>
          </mxGeometry>
        </mxCell>
        <mxCell id="n1mP7_PYSrHe9957a9sX-188" value="1" style="edgeLabel;html=1;align=center;verticalAlign=middle;resizable=0;points=[];fontSize=12;" vertex="1" connectable="0" parent="n1mP7_PYSrHe9957a9sX-187">
          <mxGeometry x="0.0534" relative="1" as="geometry">
            <mxPoint x="4" as="offset" />
          </mxGeometry>
        </mxCell>
        <mxCell id="n1mP7_PYSrHe9957a9sX-195" style="edgeStyle=orthogonalEdgeStyle;rounded=0;orthogonalLoop=1;jettySize=auto;html=1;entryX=0;entryY=1;entryDx=0;entryDy=0;" edge="1" parent="1" source="n1mP7_PYSrHe9957a9sX-190" target="n1mP7_PYSrHe9957a9sX-143">
          <mxGeometry relative="1" as="geometry">
            <Array as="points">
              <mxPoint x="1124" y="763" />
              <mxPoint x="854" y="763" />
            </Array>
          </mxGeometry>
        </mxCell>
        <mxCell id="n1mP7_PYSrHe9957a9sX-196" value="0" style="edgeLabel;html=1;align=center;verticalAlign=middle;resizable=0;points=[];" vertex="1" connectable="0" parent="n1mP7_PYSrHe9957a9sX-195">
          <mxGeometry x="0.0399" y="-2" relative="1" as="geometry">
            <mxPoint as="offset" />
          </mxGeometry>
        </mxCell>
        <mxCell id="n1mP7_PYSrHe9957a9sX-199" style="edgeStyle=orthogonalEdgeStyle;rounded=0;orthogonalLoop=1;jettySize=auto;html=1;entryX=0;entryY=0.5;entryDx=0;entryDy=0;" edge="1" parent="1" source="n1mP7_PYSrHe9957a9sX-190" target="n1mP7_PYSrHe9957a9sX-197">
          <mxGeometry relative="1" as="geometry" />
        </mxCell>
        <mxCell id="n1mP7_PYSrHe9957a9sX-201" value="1" style="edgeLabel;html=1;align=center;verticalAlign=middle;resizable=0;points=[];" vertex="1" connectable="0" parent="n1mP7_PYSrHe9957a9sX-199">
          <mxGeometry x="0.0624" y="-2" relative="1" as="geometry">
            <mxPoint as="offset" />
          </mxGeometry>
        </mxCell>
        <mxCell id="n1mP7_PYSrHe9957a9sX-190" value="" style="ellipse;whiteSpace=wrap;html=1;" vertex="1" parent="1">
          <mxGeometry x="1083.5" y="617" width="80" height="80" as="geometry" />
        </mxCell>
        <mxCell id="n1mP7_PYSrHe9957a9sX-191" value="q7" style="text;strokeColor=none;fillColor=none;html=1;align=center;verticalAlign=middle;whiteSpace=wrap;rounded=0;fontSize=20;" vertex="1" parent="1">
          <mxGeometry x="1096" y="639" width="55" height="36" as="geometry" />
        </mxCell>
        <mxCell id="n1mP7_PYSrHe9957a9sX-200" style="edgeStyle=orthogonalEdgeStyle;rounded=0;orthogonalLoop=1;jettySize=auto;html=1;exitX=0;exitY=1;exitDx=0;exitDy=0;entryX=1;entryY=1;entryDx=0;entryDy=0;" edge="1" parent="1" source="n1mP7_PYSrHe9957a9sX-197" target="n1mP7_PYSrHe9957a9sX-190">
          <mxGeometry relative="1" as="geometry">
            <mxPoint x="1185.3076923076922" y="691.7692307692305" as="targetPoint" />
          </mxGeometry>
        </mxCell>
        <mxCell id="n1mP7_PYSrHe9957a9sX-202" value="0" style="edgeLabel;html=1;align=center;verticalAlign=middle;resizable=0;points=[];" vertex="1" connectable="0" parent="n1mP7_PYSrHe9957a9sX-200">
          <mxGeometry x="-0.0169" y="-2" relative="1" as="geometry">
            <mxPoint as="offset" />
          </mxGeometry>
        </mxCell>
        <mxCell id="n1mP7_PYSrHe9957a9sX-197" value="" style="ellipse;whiteSpace=wrap;html=1;" vertex="1" parent="1">
          <mxGeometry x="1206" y="617" width="80" height="80" as="geometry" />
        </mxCell>
        <mxCell id="n1mP7_PYSrHe9957a9sX-206" value="" style="ellipse;whiteSpace=wrap;html=1;aspect=fixed;" vertex="1" parent="1">
          <mxGeometry x="1212.5" y="623.5" width="67" height="67" as="geometry" />
        </mxCell>
        <mxCell id="n1mP7_PYSrHe9957a9sX-198" value="q8" style="text;strokeColor=none;fillColor=none;html=1;align=center;verticalAlign=middle;whiteSpace=wrap;rounded=0;fontSize=20;" vertex="1" parent="1">
          <mxGeometry x="1218.5" y="639" width="55" height="36" as="geometry" />
        </mxCell>
        <mxCell id="n1mP7_PYSrHe9957a9sX-203" value="" style="edgeStyle=elbowEdgeStyle;elbow=horizontal;endArrow=classic;html=1;curved=0;rounded=0;endSize=8;startSize=8;fontSize=12;exitX=1;exitY=1;exitDx=0;exitDy=0;entryX=1;entryY=0;entryDx=0;entryDy=0;" edge="1" parent="1">
          <mxGeometry width="50" height="50" relative="1" as="geometry">
            <mxPoint x="1274.004271247462" y="687.5642712474619" as="sourcePoint" />
            <mxPoint x="1274.004271247462" y="630.9957287525383" as="targetPoint" />
            <Array as="points">
              <mxPoint x="1328" y="657.3499999999999" />
            </Array>
          </mxGeometry>
        </mxCell>
        <mxCell id="n1mP7_PYSrHe9957a9sX-204" value="0" style="edgeLabel;html=1;align=center;verticalAlign=middle;resizable=0;points=[];fontSize=12;" vertex="1" connectable="0" parent="n1mP7_PYSrHe9957a9sX-203">
          <mxGeometry x="0.0534" relative="1" as="geometry">
            <mxPoint x="4" as="offset" />
          </mxGeometry>
        </mxCell>
        <mxCell id="n1mP7_PYSrHe9957a9sX-208" value="L3" style="text;strokeColor=none;fillColor=none;html=1;align=center;verticalAlign=middle;whiteSpace=wrap;rounded=0;fontSize=20;" vertex="1" parent="1">
          <mxGeometry x="718" y="391" width="55" height="36" as="geometry" />
        </mxCell>
        <mxCell id="n1mP7_PYSrHe9957a9sX-210" value="&lt;font style=&quot;font-size: 22px;&quot;&gt;&lt;br&gt;Nama &lt;span style=&quot;white-space: pre;&quot;&gt;&#x9;&lt;/span&gt;: I Ketut Cahaya Tirta Dharma Putra&lt;/font&gt;&lt;div style=&quot;font-size: 22px;&quot;&gt;&lt;font style=&quot;font-size: 22px;&quot;&gt;NIM &lt;span style=&quot;white-space: pre;&quot;&gt;&#x9;&lt;/span&gt;: 230856118&lt;/font&gt;&lt;/div&gt;&lt;div style=&quot;font-size: 22px;&quot;&gt;&lt;font style=&quot;font-size: 22px;&quot;&gt;Kelas&lt;span style=&quot;white-space: pre;&quot;&gt;&#x9;&lt;/span&gt;: D&lt;/font&gt;&lt;/div&gt;" style="text;html=1;align=left;verticalAlign=middle;whiteSpace=wrap;rounded=0;" vertex="1" parent="1">
          <mxGeometry x="-237" y="-61" width="513" height="30" as="geometry" />
        </mxCell>
      </root>
    </mxGraphModel>
  </diagram>
</mxfile>
